<svg width="60" height="45" viewBox="0 0 60 45" fill="none" xmlns="http://www.w3.org/2000/svg">
<path d="M17.84 44.768C30 44.768 35.504 33.696 35.504 22.688C35.504 11.68 30 0.671997 17.84 0.671997C5.616 0.671997 0.176 11.68 0.176 22.688C0.176 33.696 5.616 44.768 17.84 44.768ZM17.84 36.704C11.696 36.704 9.392 30.56 9.392 22.688C9.392 14.816 11.696 8.736 17.84 8.736C23.92 8.736 26.224 14.816 26.224 22.688C26.224 30.56 23.92 36.704 17.84 36.704ZM59.7675 44V1.312H51.8315L38.3915 14.816L43.5755 20.256L50.6795 13.024V44H59.7675Z" fill="#E1E1E1"/>
</svg>
