<svg width="73" height="45" viewBox="0 0 73 45" fill="none" xmlns="http://www.w3.org/2000/svg">
<path d="M17.8088 44.768C29.9688 44.768 35.4728 33.696 35.4728 22.688C35.4728 11.68 29.9688 0.671997 17.8088 0.671997C5.58475 0.671997 0.14475 11.68 0.14475 22.688C0.14475 33.696 5.58475 44.768 17.8088 44.768ZM17.8088 36.704C11.6648 36.704 9.36075 30.56 9.36075 22.688C9.36075 14.816 11.6648 8.736 17.8088 8.736C23.8888 8.736 26.1928 14.816 26.1928 22.688C26.1928 30.56 23.8888 36.704 17.8088 36.704ZM72.7923 44V36H55.3843C66.4563 27.936 72.4723 21.6 72.4723 14.304C72.4723 5.792 65.2403 0.671997 56.1523 0.671997C50.2003 0.671997 43.8643 2.848 39.7043 7.648L44.8883 13.664C47.7683 10.656 51.4803 8.736 56.3443 8.736C59.8643 8.736 63.2563 10.592 63.2563 14.304C63.2563 19.552 58.1363 23.968 40.6643 36.896V44H72.7923Z" fill="#E1E1E1"/>
</svg>
