<svg width="74" height="45" viewBox="0 0 74 45" fill="none" xmlns="http://www.w3.org/2000/svg">
<path d="M18.215 44.768C30.375 44.768 35.879 33.696 35.879 22.688C35.879 11.68 30.375 0.671997 18.215 0.671997C5.991 0.671997 0.551 11.68 0.551 22.688C0.551 33.696 5.991 44.768 18.215 44.768ZM18.215 36.704C12.071 36.704 9.767 30.56 9.767 22.688C9.767 14.816 12.071 8.736 18.215 8.736C24.295 8.736 26.599 14.816 26.599 22.688C26.599 30.56 24.295 36.704 18.215 36.704ZM56.1745 44.768C66.4145 44.768 73.0065 39.584 73.0065 32.224C73.0065 25.824 67.3745 22.432 63.0225 21.984C67.7585 21.152 72.3665 17.632 72.3665 12.256C72.3665 5.152 66.2225 0.671997 56.2385 0.671997C48.7505 0.671997 43.3745 3.552 39.9185 7.456L44.4625 13.152C47.4705 10.272 51.1825 8.736 55.2785 8.736C59.7585 8.736 63.2145 10.4 63.2145 13.792C63.2145 16.928 60.0785 18.336 55.3425 18.336C53.7425 18.336 50.7985 18.336 50.0305 18.272V26.464C50.6705 26.4 53.5505 26.336 55.3425 26.336C61.2945 26.336 63.9185 27.872 63.9185 31.264C63.9185 34.464 61.0385 36.704 55.8545 36.704C51.6945 36.704 47.0225 34.912 44.0785 31.84L39.3425 37.92C42.4785 41.76 48.3025 44.768 56.1745 44.768Z" fill="#E1E1E1"/>
</svg>
