<svg width="75" height="45" viewBox="0 0 75 45" fill="none" xmlns="http://www.w3.org/2000/svg">
<path d="M17.9025 44.768C30.0625 44.768 35.5665 33.696 35.5665 22.688C35.5665 11.68 30.0625 0.671997 17.9025 0.671997C5.6785 0.671997 0.2385 11.68 0.2385 22.688C0.2385 33.696 5.6785 44.768 17.9025 44.768ZM17.9025 36.704C11.7585 36.704 9.4545 30.56 9.4545 22.688C9.4545 14.816 11.7585 8.736 17.9025 8.736C23.9825 8.736 26.2865 14.816 26.2865 22.688C26.2865 30.56 23.9825 36.704 17.9025 36.704ZM68.854 44V35.168H74.358V27.168H68.854V1.312H56.31L39.35 28V35.168H59.766V44H68.854ZM59.766 27.168H48.246L59.766 9.376V27.168Z" fill="#E1E1E1"/>
</svg>
