<svg width="76" height="45" viewBox="0 0 76 45" fill="none" xmlns="http://www.w3.org/2000/svg">
<path d="M18.5275 44.768C30.6875 44.768 36.1915 33.696 36.1915 22.688C36.1915 11.68 30.6875 0.671997 18.5275 0.671997C6.3035 0.671997 0.8635 11.68 0.8635 22.688C0.8635 33.696 6.3035 44.768 18.5275 44.768ZM18.5275 36.704C12.3835 36.704 10.0795 30.56 10.0795 22.688C10.0795 14.816 12.3835 8.736 18.5275 8.736C24.6075 8.736 26.9115 14.816 26.9115 22.688C26.9115 30.56 24.6075 36.704 18.5275 36.704ZM57.959 44.768C68.263 44.768 75.047 39.072 75.047 29.984C75.047 21.344 68.583 16.16 61.351 16.16C57.447 16.16 53.991 17.696 51.943 19.744V9.312H72.167V1.312H42.855V25.824L49.191 27.488C51.751 25.056 54.631 24.032 58.151 24.032C63.015 24.032 65.831 26.592 65.831 30.368C65.831 33.824 62.951 36.704 57.895 36.704C53.415 36.704 49.447 35.04 46.567 32.032L41.511 38.368C45.159 42.336 50.535 44.768 57.959 44.768Z" fill="#E1E1E1"/>
</svg>
