<svg width="76" height="45" viewBox="0 0 76 45" fill="none" xmlns="http://www.w3.org/2000/svg">
<path d="M18.5275 44.768C30.6875 44.768 36.1915 33.696 36.1915 22.688C36.1915 11.68 30.6875 0.671997 18.5275 0.671997C6.3035 0.671997 0.8635 11.68 0.8635 22.688C0.8635 33.696 6.3035 44.768 18.5275 44.768ZM18.5275 36.704C12.3835 36.704 10.0795 30.56 10.0795 22.688C10.0795 14.816 12.3835 8.736 18.5275 8.736C24.6075 8.736 26.9115 14.816 26.9115 22.688C26.9115 30.56 24.6075 36.704 18.5275 36.704ZM58.983 44.768C68.711 44.768 75.303 38.432 75.303 30.112C75.303 21.024 68.455 16.224 60.775 16.224C56.103 16.224 51.815 18.848 49.831 21.728C49.767 21.408 49.767 21.152 49.767 20.832C49.767 14.048 54.183 8.736 60.455 8.736C64.231 8.736 66.663 9.888 68.967 12.064L73.063 5.088C69.991 2.464 65.639 0.671997 60.455 0.671997C47.847 0.671997 40.551 9.824 40.551 22.752C40.551 34.784 45.991 44.768 58.983 44.768ZM58.471 36.704C52.519 36.704 50.215 32.16 49.831 28.064C51.879 25.504 54.951 24.032 58.151 24.032C62.247 24.032 66.087 25.952 66.087 30.432C66.087 33.44 63.399 36.704 58.471 36.704Z" fill="#E1E1E1"/>
</svg>
