<svg width="86" height="338" viewBox="0 0 86 338" fill="none" xmlns="http://www.w3.org/2000/svg">
<g filter="url(#filter0_dd)">
<rect x="11" y="11" width="56" height="56" rx="3" fill="#0099DD"/>
<rect x="11.5" y="11.5" width="55" height="55" rx="2.5" stroke="#178EC3"/>
</g>
<path d="M52.9302 26.9244H34.5407C34.5058 26.9244 34.4709 26.9536 34.4709 26.9946V28.6445C34.4709 28.6796 34.5 28.7147 34.5407 28.7147H52.9302C52.9651 28.7147 53 28.6854 53 28.6445V26.9946C53 26.9536 52.9709 26.9244 52.9302 26.9244Z" fill="white"/>
<path d="M34.5407 31.6985H43.6977C43.7326 31.6985 43.7674 31.6692 43.7674 31.6283V29.9784C43.7674 29.9433 43.7384 29.9082 43.6977 29.9082H34.5407C34.5058 29.9082 34.4709 29.9374 34.4709 29.9784V31.6283C34.4709 31.6692 34.5 31.6985 34.5407 31.6985Z" fill="white"/>
<path d="M52.9302 36.613H34.5407C34.5058 36.613 34.4709 36.6422 34.4709 36.6832V38.333C34.4709 38.3681 34.5 38.4032 34.5407 38.4032H52.9302C52.9651 38.4032 53 38.374 53 38.333V36.6832C53 36.6422 52.9709 36.613 52.9302 36.613Z" fill="white"/>
<path d="M34.5407 41.387H43.6977C43.7326 41.387 43.7674 41.3578 43.7674 41.3168V39.667C43.7674 39.6319 43.7384 39.5968 43.6977 39.5968H34.5407C34.5058 39.5968 34.4709 39.626 34.4709 39.667V41.3168C34.4709 41.3578 34.5 41.387 34.5407 41.387Z" fill="white"/>
<path d="M52.9302 46.3015H34.5407C34.5058 46.3015 34.4709 46.3308 34.4709 46.3717V48.0216C34.4709 48.0567 34.5 48.0918 34.5407 48.0918H52.9302C52.9651 48.0918 53 48.0626 53 48.0216V46.3717C53 46.3308 52.9709 46.3015 52.9302 46.3015Z" fill="white"/>
<path d="M43.6977 49.2912H34.5407C34.5058 49.2912 34.4709 49.3204 34.4709 49.3614V51.0113C34.4709 51.0464 34.5 51.0815 34.5407 51.0815H43.6977C43.7326 51.0815 43.7674 51.0522 43.7674 51.0113V49.3614C43.7616 49.3204 43.7326 49.2912 43.6977 49.2912Z" fill="white"/>
<path d="M28.0174 29.5338L26.5407 28.036L25 29.5806L28.0116 32.6229L29.5523 31.0842L33.0756 27.5504L31.5465 26L28.0174 29.5338Z" fill="white"/>
<path d="M28.0174 39.2223L26.5407 37.7246L25 39.2691L28.0116 42.3114L29.5523 40.7727L33.0756 37.239L31.5465 35.6886L28.0174 39.2223Z" fill="white"/>
<path d="M28.0174 48.9109L26.5407 47.4131L25 48.9577L28.0116 52L33.0756 46.9275L31.5465 45.3771L28.0174 48.9109Z" fill="white"/>
<g filter="url(#filter1_d)">
<rect x="11" y="74" width="56" height="56" rx="3" fill="white"/>
<rect x="11.5" y="74.5" width="55" height="55" rx="2.5" stroke="#DADADA"/>
</g>
<g filter="url(#filter2_d)">
<rect x="11" y="137" width="56" height="56" rx="3" fill="white"/>
<rect x="11.5" y="137.5" width="55" height="55" rx="2.5" stroke="#DADADA"/>
</g>
<g filter="url(#filter3_d)">
<rect x="11" y="200" width="56" height="56" rx="3" fill="white"/>
<rect x="11.5" y="200.5" width="55" height="55" rx="2.5" stroke="#DADADA"/>
</g>
<g filter="url(#filter4_d)">
<rect x="11" y="263" width="56" height="56" rx="3" fill="white"/>
<rect x="11.5" y="263.5" width="55" height="55" rx="2.5" stroke="#DADADA"/>
</g>
<path d="M37.6997 96.2206L37.6971 96.2241C37.4627 96.0089 37.1547 95.875 36.8125 95.875C36.088 95.875 35.5 96.463 35.5 97.1875C35.5 97.5708 35.6663 97.912 35.9279 98.1518L35.9253 98.1553L40.12 102L35.9252 105.846L35.9278 105.849C35.6662 106.088 35.5 106.429 35.5 106.813C35.5 107.537 36.088 108.125 36.8125 108.125C37.1546 108.125 37.4626 107.991 37.6971 107.777L37.6997 107.78L42.9497 102.968C43.2201 102.718 43.375 102.368 43.375 102C43.375 101.632 43.2201 101.282 42.9497 101.032L37.6997 96.2206ZM39 88C31.2685 88 25 94.2685 25 102C25 109.731 31.2685 116 39 116C46.7315 116 53 109.731 53 102C53 94.2685 46.7315 88 39 88ZM39 113.375C32.728 113.375 27.625 108.272 27.625 102C27.625 95.728 32.728 90.625 39 90.625C45.272 90.625 50.375 95.728 50.375 102C50.375 108.272 45.272 113.375 39 113.375Z" fill="#DADADA"/>
<path d="M40 174H38C37.4 174 37 174.4 37 175V177C37 177.6 37.4 178 38 178H40C40.6 178 41 177.6 41 177V175C41 174.4 40.6 174 40 174Z" fill="#DADADA"/>
<path d="M39 152C34 152 30 156 30 161C30 161.5 30 162 30.1 162.5C30.2 163.1 30.8 163.4 31.4 163.3L33.3 162.7C33.8 162.6 34.1 162.1 34 161.6C34 161.4 34 161.2 34 161C34 158.2 36.2 156 39 156C41.8 156 44 158.2 44 161C44 162.7 43 163.5 41.2 165C39.5 166.4 37.5 168 37 170.9C36.9 171.5 37.4 172 38 172H40C40.5 172 40.9 171.7 41 171.2C41.3 170 42.2 169.2 43.7 168.1C45.6 166.6 48 164.7 48 161C48 156 44 152 39 152Z" fill="#DADADA"/>
<g clip-path="url(#clip0)">
<path d="M50.6805 229.685C50.7164 229.51 50.8395 229.365 51.0067 229.302L53.9844 228.183C53.9948 227.976 54 227.748 54 227.5C54 227.251 53.9948 227.023 53.9845 226.816L51.0068 225.697C50.8396 225.634 50.7165 225.489 50.6806 225.314C50.5813 224.801 50.4463 224.296 50.2767 223.802C50.2186 223.632 50.2519 223.444 50.3647 223.305L52.3844 220.85C52.2912 220.664 52.1824 220.462 52.0581 220.25C51.9287 220.032 51.8147 219.84 51.7008 219.664L48.5625 220.187C48.385 220.214 48.206 220.15 48.0861 220.017C47.7448 219.623 47.3762 219.255 46.9831 218.913C46.8475 218.795 46.7829 218.615 46.8122 218.437L47.3352 215.299C47.1591 215.185 46.9676 215.071 46.7501 214.942C46.5377 214.817 46.3358 214.709 46.1493 214.615L43.6947 216.635C43.5563 216.75 43.3671 216.784 43.1976 216.723C42.7035 216.553 42.1982 216.418 41.6854 216.319C41.5102 216.283 41.3656 216.16 41.3022 215.993L40.1836 213.015C39.7641 212.994 39.2359 212.994 38.8165 213.015L37.6979 215.993C37.6344 216.16 37.4898 216.283 37.3146 216.319C36.8018 216.418 36.2966 216.553 35.8025 216.723C35.6329 216.784 35.4438 216.75 35.3054 216.635L32.8507 214.615C32.6643 214.708 32.4623 214.817 32.25 214.941C32.0325 215.071 31.8409 215.185 31.6648 215.299L32.1879 218.437C32.2172 218.615 32.1526 218.795 32.017 218.913C31.6239 219.255 31.2553 219.623 30.914 220.017C30.7941 220.15 30.615 220.214 30.4376 220.187L27.2993 219.664C27.1854 219.84 27.0715 220.032 26.942 220.249C26.8177 220.462 26.709 220.664 26.6157 220.85L28.6354 223.305C28.7483 223.444 28.7815 223.632 28.7234 223.802C28.5538 224.296 28.4188 224.801 28.3195 225.314C28.2836 225.489 28.1604 225.634 27.9933 225.697L25.0155 226.816C25.0052 227.023 25 227.251 25 227.5C25 227.748 25.0052 227.976 25.0155 228.183L27.9932 229.302C28.1604 229.365 28.2835 229.51 28.3194 229.685C28.4187 230.198 28.5537 230.703 28.7233 231.197C28.7814 231.367 28.7481 231.555 28.6353 231.694L26.6156 234.149C26.7088 234.335 26.8176 234.537 26.9419 234.75C27.0713 234.967 27.1853 235.159 27.2992 235.335L30.4374 234.812C30.6149 234.785 30.7939 234.849 30.9138 234.983C31.2552 235.376 31.6238 235.744 32.0169 236.086C32.1525 236.204 32.2171 236.384 32.1878 236.562L31.6647 239.7C31.8408 239.814 32.0324 239.933 32.2499 240.058C32.4622 240.182 32.6642 240.291 32.8506 240.384L35.3053 238.364C35.4437 238.249 35.6329 238.215 35.8024 238.276C36.2965 238.446 36.8018 238.581 37.3146 238.68C37.4898 238.716 37.6344 238.839 37.6978 239.006L38.8164 241.984C39.2359 242.005 39.7641 242.005 40.1835 241.984L41.3021 239.006C41.3655 238.839 41.5101 238.716 41.6854 238.68C42.1982 238.581 42.7034 238.446 43.1975 238.276C43.3671 238.215 43.5562 238.249 43.6946 238.364L46.1493 240.384C46.3357 240.291 46.5377 240.182 46.75 240.058C46.9675 239.933 47.1591 239.814 47.3352 239.7L46.8121 236.562C46.7828 236.384 46.8474 236.204 46.983 236.086C47.3761 235.744 47.7447 235.376 48.086 234.983C48.2059 234.849 48.385 234.785 48.5624 234.812L51.7007 235.335C51.8146 235.159 51.9285 234.967 52.058 234.75C52.1823 234.537 52.291 234.335 52.3843 234.149L50.3646 231.694C50.2517 231.555 50.2185 231.367 50.2766 231.197C50.4462 230.703 50.5812 230.198 50.6805 229.685ZM39.6864 236.298C39.6243 236.303 39.5621 236.303 39.5 236.303H39.443C34.6346 236.273 30.7404 232.389 30.6965 227.581C30.6527 222.773 34.4755 218.819 39.2825 218.701C39.355 218.696 39.4275 218.696 39.5 218.696H39.557C44.3719 218.725 48.2696 222.618 48.305 227.433C48.3404 232.248 44.5004 236.198 39.6864 236.298Z" fill="#DADADA"/>
<path d="M39.5001 230.089C38.6421 230.089 37.9465 230.785 37.9465 231.643C37.9465 232.501 38.6421 233.197 39.5001 233.197C39.5521 233.198 39.604 233.195 39.6555 233.189C40.4792 233.106 41.0934 232.392 41.052 231.565C41.0105 230.738 40.328 230.089 39.5001 230.089Z" fill="#DADADA"/>
<path d="M39.5001 228.536C40.3581 228.536 41.0537 227.84 41.0537 226.982V222.839C41.0512 221.982 40.3571 221.288 39.5001 221.286C39.4484 221.286 39.3965 221.291 39.3448 221.296C38.5523 221.377 37.9487 222.043 37.9465 222.839V226.982C37.9465 227.84 38.6421 228.536 39.5001 228.536Z" fill="#DADADA"/>
</g>
<path d="M35.3531 280.936C36.982 279.69 39.1385 279 41.4231 279C43.0915 279 44.7104 279.371 46.1041 280.071L46.1074 280.072L46.111 280.074C46.4707 280.237 46.6956 280.595 46.6956 280.979C46.6956 281.073 46.6821 281.169 46.6535 281.265C46.5676 281.547 46.3597 281.779 46.0866 281.895C45.9596 281.949 45.8253 281.975 45.6922 281.975C45.5354 281.975 45.3783 281.939 45.2361 281.866C44.3589 281.42 43.3663 281.14 42.3252 281.037C41.4975 280.875 40.6446 280.791 39.7817 280.791C37.7651 280.791 35.8273 281.24 34.1551 282.077C34.4986 281.67 34.8959 281.287 35.3531 280.936ZM47.926 297.035C47.926 296.722 47.7784 296.414 47.5017 296.22C47.326 296.097 47.1247 296.037 46.9261 296.037C46.6103 296.038 46.3001 296.185 46.1058 296.46C45.6021 297.171 45.0603 297.717 44.4541 298.124C43.7431 298.6 42.6187 299.333 42.6103 299.34L42.6097 299.341C42.3265 299.525 42.1567 299.837 42.1567 300.172L42.1588 301.496L39.0799 300.19C38.9571 300.138 38.8238 300.111 38.6882 300.111L38.632 300.112C38.4009 300.126 38.1674 300.132 37.9362 300.132C34.5147 300.13 31.3887 298.738 29.7703 296.462L29.7594 296.449L29.7692 296.462C29.7378 296.417 29.7002 296.376 29.6599 296.336L29.6497 296.324L29.6405 296.312C29.0025 295.368 28.6705 294.347 28.671 293.281C28.671 291.384 29.7214 289.673 31.3908 288.446C33.0624 287.217 35.3583 286.461 37.8879 286.461C39.7298 286.461 41.5093 286.865 43.0376 287.632L43.0876 287.656L43.0897 287.656C43.8536 288.046 44.4672 288.545 44.8926 289.111C45.3185 289.676 45.555 290.311 45.555 290.961C45.5539 292.015 44.949 293.017 43.8873 293.783C42.7094 294.633 41.1344 295.095 39.4504 295.095C39.0251 295.095 38.5994 295.064 38.1869 295.005L38.1725 295.002H38.1719C36.9919 294.823 35.8651 294.437 34.9064 293.882L34.8858 293.872L34.8808 293.869C33.0108 292.765 31.9158 291.121 31.9158 289.347C31.9158 289.21 31.9239 289.073 31.937 288.938C31.1639 289.488 30.5384 290.145 30.1058 290.868C30.5817 292.75 31.9289 294.463 33.9226 295.621L33.997 295.658L34.0003 295.659C35.1525 296.309 36.4939 296.765 37.8852 296.974L37.9097 296.977H37.9108C38.4154 297.049 38.9338 297.087 39.4499 297.087C41.5612 297.087 43.5558 296.483 45.063 295.394C46.6814 294.225 47.5567 292.655 47.5581 290.961C47.5587 288.906 46.2213 286.995 43.9448 285.855L43.8928 285.83L43.8909 285.829C42.1008 284.94 40.0253 284.469 37.8875 284.469C34.9354 284.468 32.1507 285.358 30.0504 286.964C27.8614 288.641 26.6673 290.88 26.6667 293.281C26.6667 294.789 27.1556 296.274 28.084 297.582C28.1226 297.634 28.1681 297.685 28.2178 297.732L28.2298 297.742L28.2373 297.754C30.2312 300.443 33.9301 302.124 37.9363 302.123C38.1132 302.123 38.2917 302.12 38.4707 302.113L38.5059 302.112L42.7626 303.922C42.8891 303.974 43.0225 304 43.1565 304C43.3502 304 43.5428 303.945 43.7077 303.836C43.9881 303.651 44.1577 303.339 44.1577 303.006L44.1601 300.711L44.2312 300.663C44.6251 300.405 45.166 300.049 45.5735 299.776C46.371 299.242 47.1007 298.515 47.7425 297.608C47.8674 297.434 47.926 297.234 47.926 297.035ZM39.7939 292.682L39.77 292.838L39.795 292.682L39.801 292.683C40.2442 292.748 40.7005 292.78 41.1568 292.78C42.3423 292.78 43.4843 292.56 44.4966 292.158C44.7397 291.768 44.8683 291.361 44.8688 290.952C44.8688 290.596 44.7668 290.241 44.5818 289.898C43.6383 290.462 42.4247 290.787 41.1567 290.787C40.7959 290.787 40.4362 290.762 40.0895 290.712C37.7355 290.361 35.8612 289.126 35.0848 287.515C34.4153 287.686 33.7836 287.917 33.2022 288.197C34.207 290.452 36.6657 292.217 39.7939 292.682ZM48.3334 287.332C48.3334 285.516 47.1674 283.822 45.1769 282.804L45.1124 282.774L45.1118 282.773C43.5284 281.979 41.6914 281.559 39.7971 281.559C37.2005 281.558 34.7522 282.341 32.9047 283.756C32.2808 284.232 31.7496 284.762 31.3155 285.331C33.2111 284.328 35.4275 283.776 37.745 283.75C38.4052 283.619 39.0934 283.55 39.7971 283.55C41.397 283.55 42.9389 283.905 44.2592 284.577L44.3115 284.602L44.3143 284.604C45.2116 285.074 45.8557 285.726 46.1513 286.456C46.9919 287.206 47.6106 288.092 47.9636 289.057C48.2037 288.505 48.3334 287.926 48.3334 287.332Z" fill="#DADADA"/>
<defs>
<filter id="filter0_dd" x="0" y="0" width="86" height="86" filterUnits="userSpaceOnUse" color-interpolation-filters="sRGB">
<feFlood flood-opacity="0" result="BackgroundImageFix"/>
<feColorMatrix in="SourceAlpha" type="matrix" values="0 0 0 0 0 0 0 0 0 0 0 0 0 0 0 0 0 0 127 0"/>
<feOffset dx="4" dy="4"/>
<feGaussianBlur stdDeviation="7.5"/>
<feColorMatrix type="matrix" values="0 0 0 0 0 0 0 0 0 0 0 0 0 0 0 0 0 0 0.03 0"/>
<feBlend mode="normal" in2="BackgroundImageFix" result="effect1_dropShadow"/>
<feColorMatrix in="SourceAlpha" type="matrix" values="0 0 0 0 0 0 0 0 0 0 0 0 0 0 0 0 0 0 127 0"/>
<feOffset dx="4" dy="4"/>
<feGaussianBlur stdDeviation="7.5"/>
<feColorMatrix type="matrix" values="0 0 0 0 0 0 0 0 0 0 0 0 0 0 0 0 0 0 0.03 0"/>
<feBlend mode="normal" in2="effect1_dropShadow" result="effect2_dropShadow"/>
<feBlend mode="normal" in="SourceGraphic" in2="effect2_dropShadow" result="shape"/>
</filter>
<filter id="filter1_d" x="0" y="63" width="86" height="86" filterUnits="userSpaceOnUse" color-interpolation-filters="sRGB">
<feFlood flood-opacity="0" result="BackgroundImageFix"/>
<feColorMatrix in="SourceAlpha" type="matrix" values="0 0 0 0 0 0 0 0 0 0 0 0 0 0 0 0 0 0 127 0"/>
<feOffset dx="4" dy="4"/>
<feGaussianBlur stdDeviation="7.5"/>
<feColorMatrix type="matrix" values="0 0 0 0 0 0 0 0 0 0 0 0 0 0 0 0 0 0 0.03 0"/>
<feBlend mode="normal" in2="BackgroundImageFix" result="effect1_dropShadow"/>
<feBlend mode="normal" in="SourceGraphic" in2="effect1_dropShadow" result="shape"/>
</filter>
<filter id="filter2_d" x="0" y="126" width="86" height="86" filterUnits="userSpaceOnUse" color-interpolation-filters="sRGB">
<feFlood flood-opacity="0" result="BackgroundImageFix"/>
<feColorMatrix in="SourceAlpha" type="matrix" values="0 0 0 0 0 0 0 0 0 0 0 0 0 0 0 0 0 0 127 0"/>
<feOffset dx="4" dy="4"/>
<feGaussianBlur stdDeviation="7.5"/>
<feColorMatrix type="matrix" values="0 0 0 0 0 0 0 0 0 0 0 0 0 0 0 0 0 0 0.03 0"/>
<feBlend mode="normal" in2="BackgroundImageFix" result="effect1_dropShadow"/>
<feBlend mode="normal" in="SourceGraphic" in2="effect1_dropShadow" result="shape"/>
</filter>
<filter id="filter3_d" x="0" y="189" width="86" height="86" filterUnits="userSpaceOnUse" color-interpolation-filters="sRGB">
<feFlood flood-opacity="0" result="BackgroundImageFix"/>
<feColorMatrix in="SourceAlpha" type="matrix" values="0 0 0 0 0 0 0 0 0 0 0 0 0 0 0 0 0 0 127 0"/>
<feOffset dx="4" dy="4"/>
<feGaussianBlur stdDeviation="7.5"/>
<feColorMatrix type="matrix" values="0 0 0 0 0 0 0 0 0 0 0 0 0 0 0 0 0 0 0.03 0"/>
<feBlend mode="normal" in2="BackgroundImageFix" result="effect1_dropShadow"/>
<feBlend mode="normal" in="SourceGraphic" in2="effect1_dropShadow" result="shape"/>
</filter>
<filter id="filter4_d" x="0" y="252" width="86" height="86" filterUnits="userSpaceOnUse" color-interpolation-filters="sRGB">
<feFlood flood-opacity="0" result="BackgroundImageFix"/>
<feColorMatrix in="SourceAlpha" type="matrix" values="0 0 0 0 0 0 0 0 0 0 0 0 0 0 0 0 0 0 127 0"/>
<feOffset dx="4" dy="4"/>
<feGaussianBlur stdDeviation="7.5"/>
<feColorMatrix type="matrix" values="0 0 0 0 0 0 0 0 0 0 0 0 0 0 0 0 0 0 0.03 0"/>
<feBlend mode="normal" in2="BackgroundImageFix" result="effect1_dropShadow"/>
<feBlend mode="normal" in="SourceGraphic" in2="effect1_dropShadow" result="shape"/>
</filter>
<clipPath id="clip0">
<rect width="29" height="29" fill="white" transform="translate(25 213)"/>
</clipPath>
</defs>
</svg>
