<svg width="24" height="21" viewBox="0 0 24 21" fill="none" xmlns="http://www.w3.org/2000/svg">
<g filter="url(#filter0_d)">
<path fill-rule="evenodd" clip-rule="evenodd" d="M18.4397 1.12933C18.9783 1.39321 19.1602 1.97385 18.846 2.42622L12.5235 11.5295C12.3471 11.7835 12.0404 11.9544 11.6932 11.9922C11.3459 12.0299 10.9975 11.9302 10.75 11.7223L5.33068 7.1706C4.88977 6.80028 4.88977 6.19987 5.33068 5.82955C5.77159 5.45923 6.48644 5.45923 6.92735 5.82955L11.311 9.5114L16.8956 1.47061C17.2098 1.01824 17.9011 0.865445 18.4397 1.12933Z" fill="white"/>
<path fill-rule="evenodd" clip-rule="evenodd" d="M18.4397 1.12933C18.9783 1.39321 19.1602 1.97385 18.846 2.42622L12.5235 11.5295C12.3471 11.7835 12.0404 11.9544 11.6932 11.9922C11.3459 12.0299 10.9975 11.9302 10.75 11.7223L5.33068 7.1706C4.88977 6.80028 4.88977 6.19987 5.33068 5.82955C5.77159 5.45923 6.48644 5.45923 6.92735 5.82955L11.311 9.5114L16.8956 1.47061C17.2098 1.01824 17.9011 0.865445 18.4397 1.12933Z" stroke="white" stroke-linecap="round" stroke-linejoin="round"/>
</g>
<defs>
<filter id="filter0_d" x="0.5" y="0.500732" width="23.0023" height="19.9992" filterUnits="userSpaceOnUse" color-interpolation-filters="sRGB">
<feFlood flood-opacity="0" result="BackgroundImageFix"/>
<feColorMatrix in="SourceAlpha" type="matrix" values="0 0 0 0 0 0 0 0 0 0 0 0 0 0 0 0 0 0 127 0"/>
<feOffset dy="4"/>
<feGaussianBlur stdDeviation="2"/>
<feColorMatrix type="matrix" values="0 0 0 0 0 0 0 0 0 0 0 0 0 0 0 0 0 0 0.25 0"/>
<feBlend mode="normal" in2="BackgroundImageFix" result="effect1_dropShadow"/>
<feBlend mode="normal" in="SourceGraphic" in2="effect1_dropShadow" result="shape"/>
</filter>
</defs>
</svg>
